<svg width="68" height="48" viewBox="0 0 68 48" fill="none" xmlns="http://www.w3.org/2000/svg">
<path d="M66.7804 26.8921C65.7782 21.2279 62.6593 16.7091 58.3095 12.9926C51.606 7.26337 43.8692 3.51229 35.1509 1.57481C29.6035 0.342048 24.0519 -0.362676 18.3776 0.191761C13.6099 0.656839 9.19363 2.06019 5.39069 5.01719C-0.335549 9.46488 -2.2942 17.9094 3.46531 24.2783C5.66099 26.7073 8.47629 28.2792 11.566 29.1768C17.3775 30.8625 23.345 31.0737 29.354 30.2735C32.3959 29.8694 35.4462 29.5323 38.6108 29.1525C38.5837 29.5891 38.5567 29.9222 38.5442 30.2532C38.4798 31.9389 38.3841 33.6245 38.3592 35.3102C38.2677 41.6893 42.0498 45.2352 47.119 47.1686C53.0095 49.4128 60.0977 46.9574 63.8653 41.6832C67.0985 37.1563 67.7119 32.1582 66.7804 26.8921ZM58.9624 39.7843C55.043 44.106 49.2087 43.97 45.7405 40.8099C44.31 39.5081 43.5427 37.8651 43.4492 35.9723C43.3743 34.4247 43.4346 32.869 43.4346 30.8219C43.5323 29.4652 43.6654 27.6151 43.7985 25.7649C43.8151 25.5293 43.8276 25.2917 43.8214 25.0561C43.7818 23.2974 42.5468 22.4728 40.821 22.9684C38.5733 23.6122 36.3402 24.4306 34.0385 24.7454C27.9692 25.576 21.8708 26.1853 15.7412 25.1516C13.2793 24.7353 10.9859 23.9209 8.95659 22.5216C3.41541 18.6974 4.08908 12.3711 8.51371 8.94496C12.3478 5.97578 16.9159 5.04766 21.667 5.02735C31.4623 4.98267 40.6443 7.33242 49.0153 12.3325C53.5335 15.0316 57.6005 18.3013 60.1517 22.9785C62.7466 27.7369 63.4245 34.8674 58.9624 39.7843Z" fill="#6644D1"/>
</svg>
